<?xml version="1.0" encoding="utf-8"?>
<!-- Generator: Adobe Illustrator 24.2.1, SVG Export Plug-In . SVG Version: 6.00 Build 0)  -->
<svg version="1.1" id="Layer_1" xmlns="http://www.w3.org/2000/svg" xmlns:xlink="http://www.w3.org/1999/xlink" x="0px" y="0px"
	 viewBox="0 0 1106.8 790.5" style="enable-background:new 0 0 1106.8 790.5;" xml:space="preserve">
<style type="text/css">
	.st0{fill:#FEFEFE;}
	.st1{fill:#121212;}
	.st2{fill:#CFCFCF;}
	.st3{fill:#E6E6E6;}
	.st4{fill:#070707;}
	.st5{fill:#080808;}
	.st6{fill:#0A0A0A;}
	.st7{fill:#0D0D0D;}
	.st8{fill:#0B0B0B;}
	.st9{fill:#171717;}
	.st10{fill:#1C1C1C;}
	.st11{fill:#040404;}
	.st12{fill:#050505;}
	.st13{fill:#F6F6F6;}
	.st14{fill:#C8C8C8;}
</style>
<g id="Layer_2_1_">
	<g id="Layer_1-2">
		<path class="st0" d="M1019.2,348.7c0,40.6,0,81.1,0,121.7c0,0.4-0.1,0.5-0.5,0.5c-57.8,0-115.7,0-173.5,0c-0.4,0-0.5-0.1-0.5-0.5
			c0-81.1,0-162.2,0-243.4c0-0.4,0.1-0.5,0.5-0.5c57.8,0,115.7,0,173.5,0c0.4,0,0.5,0.1,0.5,0.5
			C1019.2,267.6,1019.2,308.1,1019.2,348.7z M1016.4,384.3c0-4.6-0.4-9.3-1.1-13.8c-3.2-19.8-13.4-37.8-28.8-50.8
			c-0.3-0.2-0.3-0.4-0.1-0.7c4.2-8.1,6.6-17,7-26.1c0.3-6.8-0.6-13.7-2.6-20.2c-4.1-13.4-11.8-24.3-23.3-32.5
			c-12.1-8.6-25.7-12.3-40.6-11.2c-5.7,0.4-11.4,1.7-16.8,3.8c-12.5,4.8-22.5,12.8-29.9,24c-5.4,8.2-8.6,17.3-9.6,27.1
			c-1.3,12.1,1,24.2,6.7,35c0.2,0.4,0.1,0.5-0.2,0.8c-4.8,4-9.1,8.6-12.9,13.6c-10.8,14.6-16.5,30.9-17,49
			c-0.2,7.4,0.6,14.7,2.4,21.8c8.8,35.8,39.7,61.9,76.5,64.3c34.5,2.3,66.9-16.7,81.8-47.8C1013.5,409.4,1016.2,397.4,1016.4,384.3z
			"/>
		<path class="st1" d="M1016.4,384.3c-0.2,13.2-2.9,25.1-8.3,36.4c-14.9,31.2-47.3,50.1-81.8,47.8c-36.8-2.4-67.8-28.5-76.5-64.3
			c-1.8-7.1-2.6-14.5-2.4-21.8c0.5-18.1,6.1-34.5,17-49c3.7-5,8.1-9.6,12.9-13.6c0.3-0.3,0.4-0.4,0.2-0.8c-5.6-10.7-8-22.9-6.7-35
			c1-9.8,4.2-18.9,9.6-27.1c7.4-11.2,17.3-19.3,29.9-24c5.4-2.1,11-3.3,16.8-3.8c14.9-1.1,28.4,2.6,40.6,11.2
			c11.5,8.1,19.2,19,23.3,32.5c2,6.5,2.9,13.4,2.6,20.2c-0.4,9.1-2.7,18-7,26.1c-0.2,0.3-0.1,0.5,0.1,0.7c15.3,13,25.5,31,28.8,50.8
			C1016,375,1016.4,379.6,1016.4,384.3z M877.7,319.7c-25.1,20.7-37.3,56.9-25.5,91.5c12.2,36.1,48.1,60.7,88.2,56.6
			c35.2-3.5,66.3-29.5,73.9-67.3c3.6-18,1.4-35.4-6.3-52.1c-5.2-11.2-12.6-20.8-22.1-28.8C962.2,362.6,901.4,362.6,877.7,319.7z
			 M877.8,319.1c0.2-0.2,0.4-0.3,0.5-0.4c1.9-1.5,3.8-3,5.8-4.4c11.4-7.7,23.9-12.4,37.6-14.1c22.8-2.8,45.8,3.9,63.6,18.5
			c0.4,0.3,0.5,0.4,0.8-0.1c3.8-7.4,6.1-15.6,6.7-23.9c0.4-5.7,0-11.5-1.2-17c-2.5-11.5-7.8-21.5-16-29.9
			c-11-11.2-24.4-17.2-40-18.4c-5.4-0.4-10.7,0-16,1.1c-10.8,2.2-20.3,6.9-28.4,14.3c-11.9,10.7-18.6,24.1-20.2,40
			c-0.8,8.1,0.1,16.1,2.5,23.9C874.6,312.2,876,315.7,877.8,319.1z M928.9,300c-4.2,0-11.2,0.9-18.1,2.7c-11.9,3.1-23,8.7-32.5,16.5
			c-0.4,0.3-0.3,0.5-0.1,0.8c16.3,29.6,53.5,40.4,83.1,24c10.1-5.6,18.5-13.9,24-24c0.2-0.3,0.3-0.5-0.1-0.8
			c-6.1-5-13-9.2-20.3-12.3C954.5,302.3,943.4,300,928.9,300z"/>
		<path class="st0" d="M877.7,319.7c23.7,42.9,84.5,42.9,108.3,0c9.5,8,16.9,17.6,22.1,28.8c7.7,16.7,9.9,34.1,6.3,52.1
			c-7.6,37.8-38.7,63.7-73.9,67.3c-40.1,4-76-20.5-88.2-56.6C840.4,376.6,852.6,340.4,877.7,319.7z M922.7,421L922.7,421
			c-0.4,0-0.8,0-1.2,0c-0.3,0-0.5,0-0.5,0.4c0,0.4,0.1,0.4,0.5,0.4c0.7,0,1.5,0,2.2,0c0.6,0,0.8,0.2,0.9,0.8c0,0.5-0.2,0.8-0.9,0.8
			c-0.8,0-1.5,0-2.3,0c-0.4,0-0.3,0.2-0.3,0.5c0,0.2,0,0.4,0.3,0.4c0.9,0,1.8,0,2.7-0.1c0.6,0,1.1-0.5,1.1-1c0.1-0.3,0.1-0.7,0-1
			c-0.1-0.7-0.5-1.1-1.2-1.2C923.6,421,923.1,421,922.7,421z M923.1,403.6c0.6,0,1.1,0,1.7,0c0.3,0,0.4-0.1,0.4-0.4s0-0.5-0.4-0.4
			c-0.4,0-0.8,0.1-1.1-0.1c-0.3-0.2-0.1-0.7-0.1-1.1c-0.1-0.7-0.5-1.2-1.2-1.2c-0.8,0-1.2,0.4-1.3,1.2c0,0.5,0,1,0,1.6
			c0,0.3,0.1,0.4,0.4,0.4C922,403.5,922.5,403.6,923.1,403.6L923.1,403.6z M923.1,399c-0.8,0-1.2-0.2-1.4-0.7
			c-0.2-0.5,0-0.9,0.5-1.2c0.3-0.2,0-0.5-0.1-0.7c-0.1-0.2-0.3,0-0.4,0.1c-1.1,0.6-1,2.4,0.1,3.1c0.8,0.5,1.8,0.5,2.6,0
			c0.6-0.3,0.9-0.9,0.9-1.6c0-0.7-0.2-1.2-0.9-1.5c-0.2-0.1-0.4-0.4-0.6,0c-0.1,0.2-0.4,0.6,0.2,0.7c0.4,0.1,0.5,0.5,0.5,0.9
			c0,0.4-0.3,0.7-0.6,0.8C923.6,399,923.4,399,923.1,399L923.1,399z M924.3,420.1c0.5,0,1.1,0,1.6,0c0.3,0,0.5,0,0.5-0.4
			c0-0.4-0.2-0.4-0.5-0.4c-0.2,0-0.4,0-0.6,0c-0.1,0-0.2,0-0.2-0.2c0.3-1.2,0-1.8-1.2-1.9c-1.3-0.1-1.9,0.8-1.4,1.9
			c0.1,0.1,0.1,0.2-0.1,0.2c-0.2,0.1-0.1,0.4-0.1,0.6c0,0.2,0.3,0.1,0.4,0.1C923.2,420.2,923.7,420.1,924.3,420.1L924.3,420.1z
			 M922.1,409c0,0.1,0,0.2,0,0.4c0.1,0.5,0.3,0.8,0.8,0.9c0.5,0.1,0.8-0.2,0.9-0.7c0.1-0.2,0.1-0.4,0.2-0.6c0.1-0.2,0-0.6,0.4-0.5
			c0.3,0.1,0.3,0.5,0.2,0.7c0,0.2-0.2,0.2-0.3,0.4c-0.2,0.2-0.2,0.5,0,0.7c0.2,0.2,0.4,0,0.5-0.2c0.5-0.5,0.5-1.2,0.3-1.8
			c-0.1-0.4-0.5-0.7-0.9-0.7c-0.5,0-0.7,0.3-0.8,0.7c-0.1,0.3-0.2,0.6-0.2,0.9c0,0.1-0.1,0.3-0.3,0.3c-0.2,0-0.2-0.2-0.2-0.4
			c0-0.2,0.1-0.5,0.2-0.6c0.2-0.2,0.2-0.5-0.1-0.7c-0.2-0.1-0.4,0.1-0.5,0.3C922.1,408.3,922.2,408.6,922.1,409L922.1,409z
			 M929.4,407.9c-0.3,0-0.7,0-1,0c-0.1,0-0.3,0-0.3,0.1c0,0.2,0,0.3,0.1,0.4c0.8,0.6,1.6,1.2,2.5,1.7c0.3,0.2,0.6,0.2,0.6-0.4
			c0-0.3,0-0.5,0-0.8c-0.1-0.5,0.1-0.6,0.6-0.6c0.2,0,0.4,0.1,0.4-0.3s-0.3-0.3-0.4-0.3c-0.3,0-0.6,0.1-0.6-0.4
			c0-0.2-0.1-0.2-0.3-0.2c-0.1,0-0.2,0.1-0.2,0.2c0,0.4-0.2,0.3-0.4,0.3C930,407.9,929.7,407.9,929.4,407.9z M922.2,413.6
			c0.9-0.4,1.8-0.7,2.7-1.1c0.2-0.1,0.3-0.2,0.3-0.4c0-0.2,0.1-0.4-0.2-0.5c-0.9-0.4-1.9-0.7-2.8-1.1c-0.2,0.6,0,0.9,0.6,1.1
			c0.5,0.1,0.9,0.3,1.3,0.5c-0.4,0.2-0.8,0.3-1.2,0.4C922.3,412.7,922,413,922.2,413.6L922.2,413.6z M929,411.9c1,0,1.9,0,2.9,0
			c0.2,0,0.3,0,0.3-0.2c0-0.2,0-0.3-0.3-0.3c-1.2,0-2.4,0-3.7,0c-0.3,0-0.3,0.2-0.2,0.4c0.4,0.3,0.7,0.7,0.9,1.1
			c0.1,0.1,0.3,0.2,0.4,0.1c0.2-0.1,0-0.2,0-0.3C929.3,412.3,929.1,412.1,929,411.9L929,411.9z M926.4,415.3c0-0.4,0-0.8,0-1.3
			c0-0.2,0-0.4-0.3-0.4c-0.3,0-0.3,0.1-0.3,0.3c0,0.9,0,1.8,0,2.7c0,0.2,0,0.3,0.3,0.3c0.3,0,0.3-0.2,0.3-0.4
			C926.4,416.2,926.4,415.7,926.4,415.3L926.4,415.3z M926.4,405.7v-1.4c0-0.2,0-0.3-0.3-0.3c-0.2,0-0.3,0.1-0.3,0.3
			c0,0.9,0,1.8,0,2.7c0,0.2,0.1,0.3,0.3,0.3c0.3,0,0.3-0.2,0.3-0.3V405.7z"/>
		<path class="st2" d="M877.8,319.1c-1.8-3.3-3.2-6.9-4.4-10.5c-2.4-7.8-3.3-15.8-2.5-23.9c1.6-15.9,8.3-29.3,20.2-40
			c8.2-7.3,17.7-12.1,28.4-14.3c5.3-1.1,10.6-1.5,16-1.1c15.6,1.1,29,7.2,40,18.4c8.3,8.4,13.5,18.4,16,29.9
			c1.2,5.6,1.6,11.3,1.2,17c-0.6,8.3-2.9,16.5-6.7,23.9c-0.3,0.5-0.4,0.4-0.8,0.1c-17.8-14.6-40.8-21.3-63.6-18.5
			c-13.7,1.7-26.2,6.4-37.6,14.1c-2,1.4-3.9,2.8-5.8,4.4C878.2,318.8,878,318.9,877.8,319.1z M925.6,254.5c-0.5,0-1.1,0-1.6,0
			c-0.3,0-0.5,0-0.5,0.4s0.2,0.4,0.5,0.4c0.2,0,0.4,0,0.6,0c0.4-0.1,0.6,0.1,0.5,0.5c0,1.1,0,1.1-1.1,1.1c0,0-0.1,0-0.1,0
			c-0.3-0.1-0.4,0.1-0.4,0.4s0.1,0.4,0.4,0.4c1.1,0,2.2,0,3.2,0c0.3,0,0.5,0.1,0.5-0.4c0-0.5-0.2-0.4-0.5-0.4c-0.3,0-0.7,0-1,0
			c-0.3,0-0.3-0.1-0.3-0.3c-0.1-1.3-0.1-1.3,1.2-1.3c0.1,0,0.2,0,0.3,0c0.4,0.1,0.3-0.2,0.3-0.4s0-0.4-0.4-0.4
			C926.7,254.5,926.1,254.5,925.6,254.5z M925.1,275.2L925.1,275.2c-0.4,0-0.9,0-1.3,0c-0.3,0-0.4,0.1-0.4,0.4c0,0.3,0,0.5,0.4,0.4
			c0.8,0,1.5,0,2.3,0c0.6,0,0.9,0.2,0.9,0.8c0,0.5-0.3,0.8-0.9,0.8c-0.8,0-1.5,0-2.3,0c-0.3,0-0.4,0.1-0.4,0.4c0,0.2,0,0.5,0.3,0.4
			c0.9,0,1.8,0,2.7-0.1c0.7,0,1.1-0.4,1.2-1.1c0.1-0.3,0.1-0.7,0-1c-0.1-0.7-0.5-1.1-1.2-1.1C926,275.2,925.6,275.2,925.1,275.2z
			 M925.7,252.9c-0.7,0-1.2-0.1-1.5-0.6c-0.2-0.5,0-0.9,0.5-1.2c0.3-0.2,0.1-0.5,0-0.7s-0.3,0-0.4,0c-0.6,0.3-0.8,0.8-0.8,1.5
			c0,0.7,0.3,1.3,0.9,1.7c0.7,0.4,1.6,0.4,2.4,0.1c0.6-0.3,1-0.9,1-1.6c0-0.7-0.2-1.3-0.9-1.6c-0.2-0.1-0.4-0.3-0.5,0
			c-0.1,0.2-0.4,0.5,0.1,0.7c0.4,0.1,0.6,0.5,0.5,0.9c0,0.4-0.3,0.7-0.7,0.8C926.1,252.9,925.9,252.9,925.7,252.9L925.7,252.9z
			 M926.7,274.4c0.5,0,1.1,0,1.6,0c0.3,0,0.5-0.1,0.5-0.4c0-0.4-0.2-0.4-0.5-0.4c-0.2,0-0.3,0-0.5,0c-0.3,0-0.5,0-0.3-0.4
			c0.3-0.5,0.1-1.1-0.4-1.4c-0.6-0.4-1.4-0.5-2-0.1c-0.6,0.3-0.8,1-0.5,1.6c0.1,0.1,0.4,0.2,0,0.4c-0.2,0.1-0.1,0.4-0.1,0.6
			c0,0.2,0.3,0.1,0.4,0.1C925.6,274.4,926.2,274.4,926.7,274.4L926.7,274.4z M932.3,265.3c-0.2,0-0.4,0-0.5-0.1
			c-0.4-0.1-0.8-0.2-1-0.6c-0.1-0.4,0-0.7,0.5-0.9c0.2-0.1,0.1-0.3,0.1-0.4c-0.1-0.2-0.2-0.1-0.3,0c-0.4,0.1-0.7,0.5-0.7,1
			c-0.1,0.5,0.2,1.1,0.7,1.3c0.9,0.4,1.9,0.4,2.8,0.1c0.7-0.3,0.9-1.1,0.7-1.7c-0.2-0.4-0.5-0.7-1-0.7c-0.6-0.1-1.1,0-1.4,0.5
			C931.7,264.2,931.9,264.7,932.3,265.3z M924.6,263.1l0,0.2c0.1,0.6,0.4,1,0.8,1c0.6,0,0.8-0.4,0.9-0.9c0.1-0.2,0.1-0.5,0.2-0.7
			c0-0.1,0.1-0.3,0.2-0.3c0.2,0,0.2,0.2,0.3,0.3c0.1,0.3,0,0.6-0.3,0.8c-0.3,0.2-0.2,0.6,0,0.7c0.2,0.2,0.4-0.1,0.5-0.2
			c0.5-0.5,0.5-1.6,0.1-2.2c-0.3-0.4-0.8-0.4-1.2-0.1c-0.1,0.1-0.2,0.2-0.3,0.4c-0.1,0.3-0.2,0.6-0.3,0.8c-0.1,0.2,0,0.6-0.3,0.5
			c-0.3-0.1-0.2-0.4-0.1-0.7c0-0.1,0.1-0.1,0.2-0.2c0.2-0.2,0.2-0.5,0-0.7c-0.2-0.2-0.4,0.1-0.5,0.3
			C924.6,262.4,924.6,262.8,924.6,263.1L924.6,263.1z M924.7,267.8c0.9-0.4,1.9-0.7,2.8-1.1c0.3-0.1,0.2-0.3,0.2-0.5
			c0-0.2-0.1-0.3-0.2-0.4c-0.9-0.4-1.8-0.7-2.7-1.1c-0.2,0.6,0,0.9,0.6,1.1c0.4,0.1,0.9,0.3,1.3,0.5c-0.4,0.2-0.9,0.4-1.4,0.5
			C924.6,266.9,924.5,267.3,924.7,267.8L924.7,267.8z M928.8,269.5c0-0.4,0-0.9,0-1.3c0-0.2,0-0.3-0.3-0.3c-0.3,0-0.3,0.1-0.3,0.3
			c0,0.9,0,1.8,0,2.7c0,0.2,0,0.3,0.3,0.3c0.2,0,0.3-0.1,0.3-0.3C928.8,270.4,928.8,270,928.8,269.5L928.8,269.5z M928.8,259.9v-1.3
			c0-0.2,0-0.4-0.2-0.3c-0.2,0-0.3,0.1-0.3,0.3c0,0.9,0,1.8,0,2.7c0,0.2,0.1,0.3,0.3,0.3s0.3-0.1,0.3-0.3
			C928.8,260.8,928.8,260.4,928.8,259.9L928.8,259.9z"/>
		<path class="st3" d="M928.9,300c14.4,0,25.5,2.3,36.1,6.8c7.3,3.1,14.1,7.3,20.3,12.3c0.3,0.3,0.2,0.5,0.1,0.8
			c-16.3,29.6-53.5,40.4-83.1,24c-10.1-5.6-18.5-13.9-24-24c-0.2-0.3-0.2-0.5,0.1-0.8c9.5-7.8,20.6-13.4,32.5-16.5
			C917.7,300.8,924.7,300,928.9,300z M931.7,325.2c-0.3-0.4-0.7-0.6-1.2-0.4c-0.4,0.2-0.7,0.6-0.7,1.1c0,0.5,0.2,1,0.7,1.2
			c0.1,0.1,0.3,0.2,0.4-0.1c0.1-0.2,0-0.3-0.2-0.4c-0.4-0.1-0.6-0.5-0.5-0.9c0-0.3,0.3-0.5,0.6-0.5c0.4,0,0.6,0.3,0.7,0.6
			c0,0.2,0.1,0.3,0.3,0.3c0.3,0,0.2-0.2,0.2-0.3c0-0.4,0.2-0.8,0.7-0.8c0,0,0,0,0.1,0c0.4-0.1,0.8,0.2,0.9,0.6
			c0.1,0.4,0,0.8-0.4,0.9c0,0,0,0-0.1,0c-0.2,0.1-0.4,0.2-0.3,0.5c0.1,0.3,0.4,0.1,0.5,0c0.5-0.3,0.8-0.8,0.7-1.4
			c-0.1-0.6-0.4-1-0.9-1.1C932.5,324.4,932,324.6,931.7,325.2z"/>
		<path class="st4" d="M922.7,421c0.4,0,0.9,0,1.3,0c0.7,0.1,1.1,0.4,1.2,1.2c0.1,0.3,0.1,0.7,0,1.1c-0.1,0.6-0.6,1-1.1,1
			c-0.9,0-1.8,0-2.7,0.1c-0.3,0-0.3-0.2-0.3-0.4s-0.1-0.5,0.3-0.5c0.8,0,1.5,0,2.3,0c0.6,0,0.9-0.3,0.9-0.8c0-0.6-0.2-0.8-0.9-0.8
			c-0.7,0-1.5,0-2.2,0c-0.3,0-0.5-0.1-0.5-0.4c0-0.4,0.2-0.4,0.5-0.4C921.9,421,922.3,421,922.7,421L922.7,421z"/>
		<path class="st5" d="M923.1,403.6c-0.6,0-1.1,0-1.7,0c-0.3,0-0.4-0.1-0.4-0.4c0-0.5,0-1,0-1.6c0.1-0.8,0.5-1.2,1.3-1.2
			c0.7,0,1.2,0.4,1.2,1.2c0,0.4-0.1,0.9,0.1,1.1c0.2,0.2,0.7,0.1,1.1,0.1c0.4,0,0.4,0.1,0.4,0.4c0,0.3-0.1,0.4-0.4,0.4
			C924.2,403.5,923.7,403.6,923.1,403.6z M922.4,402.7c0.1,0,0.6,0.2,0.5-0.4c0-0.7-0.2-1.1-0.6-1c-0.6,0.1-0.5,0.6-0.6,1
			C921.7,402.8,921.9,402.8,922.4,402.7L922.4,402.7z"/>
		<path class="st6" d="M923.1,399c0.3,0,0.5,0,0.7-0.1c0.4-0.1,0.6-0.4,0.6-0.8c0-0.4-0.1-0.8-0.5-0.9c-0.5-0.2-0.2-0.5-0.2-0.7
			c0.1-0.4,0.4-0.1,0.6,0c0.6,0.3,0.9,0.9,0.9,1.5c0,0.7-0.3,1.3-0.9,1.6c-0.8,0.5-1.8,0.4-2.6,0c-1.1-0.6-1.2-2.5-0.1-3.1
			c0.1-0.1,0.3-0.3,0.4-0.1c0.1,0.2,0.3,0.6,0.1,0.7c-0.5,0.3-0.7,0.7-0.5,1.2C921.9,398.8,922.4,399,923.1,399z"/>
		<path class="st7" d="M924.3,420.1c-0.5,0-1.1,0-1.6,0c-0.2,0-0.4,0.1-0.4-0.1c0-0.2-0.1-0.5,0.1-0.6c0.2-0.1,0.1-0.1,0.1-0.2
			c-0.5-1.2,0.1-2.1,1.4-1.9c1.2,0.1,1.6,0.7,1.2,1.9c-0.1,0.2,0,0.2,0.2,0.2c0.2,0,0.4,0,0.6,0c0.3,0,0.5-0.1,0.5,0.4
			c0,0.4-0.2,0.4-0.5,0.4C925.3,420.1,924.8,420.1,924.3,420.1z M923.7,418c-0.6,0-0.9,0.3-0.9,0.7c0,0.4,0.4,0.7,0.9,0.7
			c0.6,0,1-0.3,1-0.7C924.6,418.2,924.2,418,923.7,418L923.7,418z"/>
		<path class="st8" d="M922.1,409c0-0.3,0-0.7,0.2-1c0.1-0.2,0.3-0.4,0.5-0.3c0.2,0.2,0.2,0.5,0.1,0.7c-0.2,0.2-0.3,0.4-0.2,0.6
			c0,0.1,0,0.3,0.2,0.4c0.2,0,0.2-0.2,0.3-0.3c0.1-0.3,0.2-0.6,0.2-0.9c0.1-0.4,0.3-0.7,0.8-0.7c0.4,0,0.8,0.3,0.9,0.7
			c0.2,0.6,0.2,1.3-0.3,1.8c-0.1,0.1-0.4,0.4-0.5,0.2c-0.2-0.2-0.2-0.5,0-0.7c0.1-0.1,0.2-0.2,0.3-0.4c0.1-0.3,0.1-0.7-0.2-0.7
			c-0.4-0.1-0.3,0.3-0.4,0.5c-0.1,0.2-0.1,0.4-0.2,0.6c-0.2,0.4-0.4,0.8-0.9,0.7s-0.7-0.4-0.8-0.9
			C922.1,409.2,922.1,409.1,922.1,409z"/>
		<path class="st9" d="M929.4,407.9c0.3,0,0.6,0,0.9,0c0.2,0,0.5,0,0.4-0.3c0-0.2,0.1-0.2,0.2-0.2c0.1,0,0.3,0,0.3,0.2
			c0,0.5,0.3,0.4,0.6,0.4c0.2,0,0.4-0.1,0.4,0.3c0,0.4-0.3,0.3-0.4,0.3c-0.4-0.1-0.6,0.1-0.6,0.6c0,0.3,0,0.5,0,0.8
			c0,0.5-0.3,0.5-0.6,0.4c-0.8-0.5-1.6-1.1-2.5-1.7c-0.1-0.1-0.2-0.3-0.1-0.4c0-0.2,0.2-0.1,0.3-0.1
			C928.7,407.9,929,407.9,929.4,407.9z M930.7,409.6c0.1-1.2,0.1-1.2-1-1.2h-0.8l1.5,1.1C930.5,409.5,930.5,409.6,930.7,409.6
			L930.7,409.6z"/>
		<path class="st6" d="M922.2,413.6c-0.2-0.7,0-0.9,0.6-1.1c0.4-0.1,0.8-0.3,1.2-0.4c-0.4-0.2-0.8-0.4-1.3-0.5
			c-0.6-0.1-0.7-0.5-0.6-1.1c0.9,0.4,1.8,0.7,2.8,1.1c0.3,0.1,0.2,0.3,0.2,0.5c0,0.2-0.1,0.4-0.3,0.4
			C924,412.9,923.2,413.2,922.2,413.6z"/>
		<path class="st10" d="M929,411.9c0.1,0.2,0.3,0.4,0.4,0.7c0,0.1,0.2,0.2,0,0.3c-0.1,0.1-0.3,0.1-0.4-0.1c-0.2-0.4-0.6-0.8-0.9-1.1
			c-0.2-0.1-0.1-0.4,0.2-0.4c1.2,0,2.4,0,3.7,0c0.2,0,0.3,0.1,0.3,0.3s-0.1,0.2-0.3,0.2C930.9,411.9,930,411.9,929,411.9z"/>
		<path class="st10" d="M926.4,415.3c0,0.4,0,0.9,0,1.3c0,0.2,0,0.4-0.3,0.4c-0.2,0-0.3-0.2-0.3-0.3c0-0.9,0-1.8,0-2.7
			c0-0.2,0-0.3,0.3-0.3c0.3,0,0.3,0.2,0.3,0.4C926.4,414.4,926.4,414.9,926.4,415.3z"/>
		<path class="st10" d="M926.4,405.7v1.3c0,0.2,0,0.4-0.3,0.3c-0.2,0-0.3-0.1-0.3-0.3c0-0.9,0-1.8,0-2.7c0-0.2,0.1-0.3,0.3-0.3
			c0.3,0,0.3,0.2,0.3,0.3V405.7z"/>
		<path class="st11" d="M925.6,254.5c0.6,0,1.2,0,1.7,0c0.4,0,0.4,0.2,0.4,0.4s0,0.5-0.3,0.4c-0.1,0-0.2,0-0.3,0
			c-1.3,0-1.3,0-1.2,1.3c0,0.2,0.1,0.3,0.3,0.3c0.3,0,0.7,0,1,0c0.3,0,0.5,0,0.5,0.4c0,0.5-0.2,0.4-0.5,0.4c-1.1,0-2.2,0-3.2,0
			c-0.3,0-0.4-0.1-0.4-0.4s0.1-0.5,0.4-0.4c0,0,0.1,0,0.1,0c1.1,0,1.1,0,1.1-1.1c0-0.4-0.1-0.6-0.5-0.5c-0.2,0-0.4,0-0.6,0
			c-0.3,0-0.5,0-0.5-0.4c0-0.4,0.2-0.4,0.5-0.4C924.5,254.5,925,254.5,925.6,254.5z"/>
		<path class="st12" d="M925.1,275.2c0.4,0,0.9,0,1.3,0c0.7,0.1,1.1,0.4,1.2,1.1c0.1,0.3,0.1,0.7,0,1c-0.1,0.6-0.5,1-1.2,1.1
			c-0.9,0-1.8,0-2.7,0.1c-0.4,0-0.3-0.2-0.3-0.4c0-0.3,0-0.4,0.4-0.4c0.8,0,1.5,0,2.3,0c0.6,0,0.9-0.3,0.9-0.8s-0.2-0.8-0.9-0.8
			c-0.8,0-1.5,0-2.3,0c-0.4,0-0.4-0.2-0.4-0.4c0-0.3,0.1-0.4,0.4-0.4C924.3,275.2,924.7,275.2,925.1,275.2L925.1,275.2z"/>
		<path class="st5" d="M925.7,252.9c0.2,0,0.4,0,0.6-0.1c0.4-0.1,0.7-0.4,0.7-0.8c0.1-0.4-0.2-0.8-0.5-0.9c-0.5-0.2-0.2-0.5-0.1-0.7
			c0.1-0.4,0.4-0.1,0.5,0c0.7,0.3,0.9,0.9,0.9,1.6c0,0.7-0.4,1.4-1,1.6c-0.7,0.4-1.6,0.3-2.4-0.1c-0.7-0.3-0.9-0.9-0.9-1.7
			c0-0.6,0.2-1.1,0.8-1.5c0.1-0.1,0.3-0.3,0.4,0c0.1,0.2,0.3,0.5,0,0.7c-0.5,0.3-0.7,0.7-0.5,1.2C924.4,252.8,925,252.9,925.7,252.9
			z"/>
		<path class="st8" d="M926.7,274.4c-0.6,0-1.1,0-1.7,0c-0.1,0-0.3,0.1-0.4-0.1c0-0.2-0.1-0.5,0.1-0.6c0.4-0.1,0.1-0.3,0-0.4
			c-0.3-0.6-0.2-1.3,0.5-1.6c0.6-0.4,1.4-0.3,2,0.1c0.5,0.3,0.6,0.9,0.4,1.4c-0.2,0.4,0,0.4,0.3,0.4c0.2,0,0.3,0,0.5,0
			c0.3,0,0.5,0,0.5,0.4c0,0.4-0.1,0.5-0.5,0.4C927.8,274.4,927.3,274.4,926.7,274.4z M926.2,272.2c-0.6,0-1,0.2-1,0.6
			c0,0.4,0.3,0.7,0.8,0.7c0.6,0,1-0.3,1-0.7C927.1,272.4,926.6,272.3,926.2,272.2z"/>
		<path class="st8" d="M932.3,265.3c-0.4-0.6-0.6-1.1-0.2-1.7c0.4-0.5,0.9-0.6,1.4-0.5c0.7,0.1,1.2,0.8,1.1,1.5
			c-0.1,0.4-0.4,0.8-0.8,1c-0.9,0.4-1.9,0.3-2.8-0.1c-0.5-0.2-0.8-0.7-0.7-1.3c0-0.4,0.3-0.8,0.7-1c0.1,0,0.3-0.2,0.3,0
			c0,0.1,0.1,0.3-0.1,0.4c-0.4,0.2-0.6,0.5-0.5,0.9c0.1,0.4,0.5,0.6,1,0.6C932,265.3,932.1,265.3,932.3,265.3z M932.4,264.4
			c0,0.5,0.4,0.8,0.9,0.8c0,0,0,0,0.1,0c0.5,0,0.9-0.4,0.9-0.8c0-0.4-0.4-0.8-0.9-0.8S932.4,263.9,932.4,264.4z"/>
		<path class="st6" d="M924.6,263.1c0-0.4,0-0.7,0.2-0.9c0.1-0.2,0.3-0.5,0.5-0.3c0.2,0.2,0.2,0.5,0,0.7c-0.1,0.1-0.1,0.1-0.2,0.2
			c-0.1,0.3-0.2,0.6,0.1,0.7c0.3,0.1,0.3-0.3,0.3-0.5c0.1-0.3,0.1-0.6,0.3-0.8c0.2-0.4,0.7-0.7,1.1-0.5c0.1,0.1,0.3,0.1,0.4,0.3
			c0.4,0.5,0.4,1.7-0.1,2.2c-0.1,0.1-0.4,0.4-0.5,0.2c-0.2-0.2-0.3-0.5,0-0.7c0.3-0.2,0.4-0.5,0.3-0.8c0-0.2-0.1-0.3-0.3-0.3
			c-0.2,0-0.2,0.1-0.2,0.3c-0.1,0.2-0.1,0.5-0.2,0.7c-0.1,0.5-0.4,0.9-0.9,0.9c-0.5,0-0.8-0.4-0.8-1L924.6,263.1z"/>
		<path class="st5" d="M924.7,267.8c-0.2-0.6,0-0.9,0.6-1.1c0.5-0.1,0.9-0.3,1.4-0.5c-0.4-0.2-0.9-0.3-1.3-0.5
			c-0.6-0.1-0.8-0.4-0.6-1.1c0.9,0.4,1.8,0.7,2.7,1.1c0.2,0.1,0.3,0.2,0.2,0.4c0,0.2,0.1,0.4-0.2,0.5
			C926.5,267.1,925.6,267.5,924.7,267.8z"/>
		<path class="st9" d="M928.8,269.6c0,0.4,0,0.9,0,1.3c0,0.2,0,0.3-0.3,0.3c-0.3,0-0.3-0.1-0.3-0.3c0-0.9,0-1.8,0-2.7
			c0-0.2,0-0.3,0.3-0.3c0.2,0,0.3,0.1,0.3,0.3C928.8,268.7,928.8,269.1,928.8,269.6z"/>
		<path class="st9" d="M928.8,259.9c0,0.4,0,0.9,0,1.3c0,0.2-0.1,0.3-0.3,0.3c-0.2,0-0.3-0.1-0.3-0.3c0-0.9,0-1.8,0-2.7
			c0-0.2,0.1-0.3,0.3-0.3c0.3,0,0.2,0.2,0.2,0.3V259.9z"/>
		<path class="st7" d="M931.7,325.2c0.3-0.6,0.8-0.8,1.4-0.6c0.6,0.2,0.9,0.6,0.9,1.1c0.1,0.6-0.2,1.1-0.7,1.4
			c-0.2,0.1-0.4,0.3-0.5,0c-0.1-0.2,0-0.4,0.3-0.5c0.4-0.1,0.6-0.5,0.5-0.9c0,0,0,0,0-0.1c-0.1-0.4-0.5-0.7-0.9-0.6
			c-0.4,0-0.7,0.3-0.7,0.8c0,0,0,0,0,0.1c0,0.1,0.1,0.3-0.2,0.3c-0.2,0-0.2-0.1-0.3-0.3c-0.1-0.4-0.2-0.7-0.7-0.6
			c-0.3,0-0.5,0.2-0.6,0.5c-0.1,0.4,0,0.7,0.5,0.9c0.2,0.1,0.3,0.2,0.2,0.4c-0.1,0.3-0.3,0.1-0.4,0.1c-0.5-0.2-0.7-0.7-0.7-1.2
			c0-0.5,0.3-0.9,0.7-1.1C930.9,324.6,931.3,324.8,931.7,325.2z"/>
		<path class="st13" d="M922.4,402.7c-0.5,0.1-0.7,0.1-0.7-0.4c0.1-0.4,0-0.9,0.6-1c0.4,0,0.6,0.3,0.6,1
			C923,402.9,922.5,402.7,922.4,402.7z"/>
		<path class="st13" d="M923.7,418c0.6,0,0.9,0.2,0.9,0.6c0,0.4-0.4,0.7-1,0.7c-0.5,0-0.9-0.3-0.9-0.7
			C922.8,418.3,923.1,418,923.7,418z"/>
		<path class="st13" d="M930.7,409.6c-0.1-0.1-0.2-0.1-0.2-0.1l-1.5-1.1h0.7C930.8,408.4,930.8,408.4,930.7,409.6z"/>
		<path class="st14" d="M926.2,272.2c0.4,0.1,0.8,0.1,0.8,0.7c0,0.4-0.5,0.7-1,0.7c-0.5,0-0.9-0.3-0.8-0.7
			C925.2,272.5,925.6,272.2,926.2,272.2z"/>
		<path class="st14" d="M932.4,264.4c0-0.5,0.4-0.8,0.9-0.8c0.5,0,1,0.4,0.9,0.8c0,0.4-0.4,0.8-0.9,0.8
			C932.8,265.3,932.4,264.9,932.4,264.4C932.4,264.5,932.4,264.4,932.4,264.4z"/>
	</g>
</g>
</svg>
